<?xml version="1.0" encoding="UTF-8" standalone="no"?>
<svg
   version="1.1"
   viewBox="0 0 25.2705 25.269251"
   xml:space="preserve"
   xmlns="http://www.w3.org/2000/svg"
   xmlns:svg="http://www.w3.org/2000/svg">
<g
   id="g18"
   transform="translate(-32.36475,-33.43775)">
	<g
   id="g16">
		<polygon
   style="fill:#eddcc7"
   points="34.205,56.511 38.852,51.865 36.201,49.214 36.194,49.222 "
   id="polygon2" />
		<path
   style="fill:#d75a4a"
   d="m 55.451,35.266 -1.247,-1.247 c -0.775,-0.775 -2.032,-0.775 -2.807,0 l -3.582,3.581 2.651,2.651 z"
   id="path4" />
		
			<rect
   x="41.459"
   y="36.521"
   transform="matrix(0.7071,0.7071,-0.7071,0.7071,44.3228,-17.5395)"
   style="fill:#f29c21"
   width="3.7490001"
   height="16.424"
   id="rect6" />
		<polygon
   style="fill:#d6c4b1"
   points="38.852,51.865 34.205,56.511 34.072,57 41.85,54.879 41.858,54.871 "
   id="polygon8" />
		<path
   style="fill:#a34740"
   d="m 53.472,43.257 3.582,-3.582 c 0.775,-0.775 0.775,-2.032 0,-2.807 l -1.602,-1.602 -4.985,4.985 z"
   id="path10" />
		
			<rect
   x="44.035999"
   y="39.348999"
   transform="matrix(-0.7071,-0.7071,0.7071,-0.7071,45.1717,113.8333)"
   style="fill:#e18c25"
   width="4.2509999"
   height="16.424"
   id="rect12" />
		<path
   style="fill:#5e5e5e"
   d="m 33.365,58.707 c -0.256,0 -0.512,-0.098 -0.707,-0.293 -0.391,-0.391 -0.391,-1.023 0,-1.414 l 2.207,-2.207 c 0.391,-0.391 1.023,-0.391 1.414,0 0.391,0.391 0.391,1.023 0,1.414 l -2.207,2.207 c -0.195,0.195 -0.451,0.293 -0.707,0.293 z"
   id="path14" />
	</g>
</g>
</svg>
