<?xml version="1.0" encoding="UTF-8" standalone="no"?>
<svg
   version="1.1"
   viewBox="0 0 28.39 18.476"
   xml:space="preserve"
   xmlns="http://www.w3.org/2000/svg"
   xmlns:svg="http://www.w3.org/2000/svg">
<g
   id="g10"
   transform="translate(-29.806,-39.133)">
	<g
   id="g8">
		<path
   style="fill:#ffffff"
   d="m 57,48.289 -0.107,0.163 c -7.121,10.876 -18.773,10.876 -25.893,0 v 0 l 0.107,-0.163 c 7.12,-10.877 18.772,-10.877 25.893,0 z"
   id="path2" />
		<circle
   style="fill:#556080"
   cx="43.764"
   cy="46.007"
   r="5.9089999"
   id="circle4" />
		<path
   style="fill:#8697cb"
   d="m 43.947,57.609 c -5.254,0 -10.148,-3.058 -13.783,-8.609 l -0.358,-0.547 0.465,-0.711 c 3.635,-5.552 8.53,-8.609 13.784,-8.609 5.253,0 10.148,3.057 13.783,8.609 l 0.358,0.547 -0.465,0.711 c -3.636,5.552 -8.531,8.609 -13.784,8.609 z m -11.744,-9.161 c 3.206,4.624 7.356,7.161 11.744,7.161 4.436,0 8.63,-2.594 11.85,-7.317 -3.206,-4.624 -7.356,-7.161 -11.743,-7.161 -4.437,10e-4 -8.631,2.594 -11.851,7.317 z"
   id="path6" />
	</g>
</g>
</svg>
